<mxfile host="app.diagrams.net" modified="2022-07-14T06:38:42.921Z" agent="5.0 (Windows NT 10.0; Win64; x64) AppleWebKit/537.36 (KHTML, like Gecko) Chrome/103.0.0.0 Safari/537.36" etag="DP7DavOwRouX4BOhsYUY" version="20.0.4" type="gitlab">
  <diagram id="NYhO9GxEP7uApGBIi7m3" name="Page-1">
    <mxGraphModel dx="2062" dy="762" grid="1" gridSize="10" guides="1" tooltips="1" connect="1" arrows="1" fold="1" page="1" pageScale="1" pageWidth="827" pageHeight="1169" math="0" shadow="0">
      <root>
        <mxCell id="0" />
        <mxCell id="1" parent="0" />
        <mxCell id="3AFZB_E7vOMEkvCJVT4_-12" value="" style="group" parent="1" vertex="1" connectable="0">
          <mxGeometry x="190" y="160" width="520" height="205" as="geometry" />
        </mxCell>
        <mxCell id="3AFZB_E7vOMEkvCJVT4_-11" value="" style="group;fillColor=#E1D5E7;strokeColor=#9673a6;container=0;" parent="3AFZB_E7vOMEkvCJVT4_-12" vertex="1" connectable="0">
          <mxGeometry width="520" height="205" as="geometry" />
        </mxCell>
        <mxCell id="3AFZB_E7vOMEkvCJVT4_-4" value="" style="rounded=0;whiteSpace=wrap;html=1;align=left;" parent="3AFZB_E7vOMEkvCJVT4_-12" vertex="1">
          <mxGeometry width="520" height="205" as="geometry" />
        </mxCell>
        <mxCell id="3AFZB_E7vOMEkvCJVT4_-1" value="KAFKA &lt;br&gt;input" style="rounded=1;whiteSpace=wrap;html=1;fillColor=#e1d5e7;strokeColor=#9673a6;" parent="3AFZB_E7vOMEkvCJVT4_-12" vertex="1">
          <mxGeometry x="40" y="95" width="120" height="60" as="geometry" />
        </mxCell>
        <mxCell id="3AFZB_E7vOMEkvCJVT4_-2" value="filter" style="rounded=1;whiteSpace=wrap;html=1;fillColor=#f8cecc;strokeColor=#b85450;" parent="3AFZB_E7vOMEkvCJVT4_-12" vertex="1">
          <mxGeometry x="200" y="95" width="120" height="60" as="geometry" />
        </mxCell>
        <mxCell id="3AFZB_E7vOMEkvCJVT4_-9" value="" style="edgeStyle=orthogonalEdgeStyle;rounded=0;orthogonalLoop=1;jettySize=auto;html=1;fontSize=20;" parent="3AFZB_E7vOMEkvCJVT4_-12" source="3AFZB_E7vOMEkvCJVT4_-1" target="3AFZB_E7vOMEkvCJVT4_-2" edge="1">
          <mxGeometry relative="1" as="geometry" />
        </mxCell>
        <mxCell id="3AFZB_E7vOMEkvCJVT4_-3" value="ELASTIC SEARCH output" style="rounded=1;whiteSpace=wrap;html=1;fillColor=#dae8fc;strokeColor=#6c8ebf;" parent="3AFZB_E7vOMEkvCJVT4_-12" vertex="1">
          <mxGeometry x="360" y="95" width="120" height="60" as="geometry" />
        </mxCell>
        <mxCell id="3AFZB_E7vOMEkvCJVT4_-10" value="" style="edgeStyle=orthogonalEdgeStyle;rounded=0;orthogonalLoop=1;jettySize=auto;html=1;fontSize=20;" parent="3AFZB_E7vOMEkvCJVT4_-12" source="3AFZB_E7vOMEkvCJVT4_-2" target="3AFZB_E7vOMEkvCJVT4_-3" edge="1">
          <mxGeometry relative="1" as="geometry" />
        </mxCell>
        <mxCell id="3AFZB_E7vOMEkvCJVT4_-6" value="&lt;font style=&quot;font-size: 20px;&quot;&gt;LOGSTASH indexcer.conf&lt;/font&gt;" style="text;html=1;strokeColor=none;fillColor=none;align=center;verticalAlign=middle;whiteSpace=wrap;rounded=0;" parent="3AFZB_E7vOMEkvCJVT4_-12" vertex="1">
          <mxGeometry x="5" y="25" width="190" height="30" as="geometry" />
        </mxCell>
      </root>
    </mxGraphModel>
  </diagram>
</mxfile>
